<?xml version="1.0" encoding="UTF-8"?>
<svg width="15px" height="14px" viewBox="0 0 15 14" version="1.1" xmlns="http://www.w3.org/2000/svg" xmlns:xlink="http://www.w3.org/1999/xlink">
    <title>编组</title>
    <g id="系统管理" stroke="none" stroke-width="1" fill="none" fill-rule="evenodd">
        <g id="设置门店属性" transform="translate(-1620.000000, -288.000000)" fill="#0081FF" fill-rule="nonzero">
            <g id="编组" transform="translate(1620.000000, 288.000000)">
                <path d="M7.03139945,14 C5.15350674,14 3.38811749,13.2722508 2.06018775,11.9508547 C0.731745028,10.6284597 0,8.87060308 0,6.99975701 C0,5.12939692 0.731772039,3.37105434 2.05970178,2.0491453 C3.38763153,0.727749231 5.15302076,0 7.03091348,0 C8.90880621,0 10.6741954,0.727749231 12.0016122,2.0491453 C13.3305409,3.37105433 14.0618002,5.12939692 14.0618002,6.99924403 C14.0623129,8.87009008 13.3305409,10.6284597 12.0016122,11.9503417 C10.6746814,13.2717378 8.90929216,14 7.03139945,14 Z M7.03139945,1.00394566 C5.4207126,1.00394566 3.90695099,1.627723 2.76887592,2.76080333 C1.63128682,3.8928577 1.00448564,5.39857369 1.00448564,6.99973001 C1.00448564,8.60088633 1.63077386,10.1066023 2.76836295,11.2381437 C3.90643802,12.371197 5.42019963,12.9950014 7.03088647,12.9950014 C8.64108734,12.9950014 10.1553349,12.371224 11.29341,11.2381437 C12.4309991,10.1055764 13.0578003,8.60037335 13.0572876,6.99921703 C13.0572876,5.39806072 12.4309991,3.8928577 11.29341,2.7612893 C10.1558479,1.62823598 8.64160032,1.00394566 7.03139945,1.00394566 Z" id="形状"></path>
                <path d="M10.5471127,6.49750069 L7.53365577,6.49750069 L7.53365577,3.48404378 C7.53365577,3.20679442 7.30864882,2.98178747 7.03139945,2.98178747 C6.75415008,2.98178747 6.52914314,3.20679442 6.52914314,3.48404378 L6.52914314,6.49750069 L3.51571322,6.49750069 C3.23846386,6.49750069 3.01345691,6.72250764 3.01345691,6.99975701 C3.01345691,7.27700638 3.23846386,7.50201332 3.51571322,7.50201332 L6.52917013,7.50201332 L6.52917013,10.5154702 C6.52917013,10.7932056 6.75417708,11.0177265 7.03142645,11.0177265 C7.30867581,11.0177265 7.53368276,10.7932326 7.53368276,10.5154702 L7.53368276,7.50198633 L10.5471397,7.50198633 C10.824875,7.50198633 11.049396,7.27697938 11.049396,6.99973001 C11.049396,6.72248065 10.824848,6.49750069 10.5471127,6.49750069 Z" id="路径"></path>
            </g>
        </g>
    </g>
</svg>