<?xml version="1.0" encoding="UTF-8"?>
<svg width="16px" height="16px" viewBox="0 0 16 16" version="1.1" xmlns="http://www.w3.org/2000/svg" xmlns:xlink="http://www.w3.org/1999/xlink">
    <title>编组</title>
    <g id="系统管理" stroke="none" stroke-width="1" fill="none" fill-rule="evenodd">
        <g id="新增-修改主体" transform="translate(-1259.000000, -553.000000)" fill="#A9A9A9" fill-rule="nonzero">
            <g id="编组" transform="translate(1259.000000, 553.000000)">
                <path d="M15.2029156,7.20292804 L8.79707196,7.20292804 L8.79707196,0.797084415 C8.79707196,0.356869638 8.44020232,0 7.99998755,0 C7.55977277,0 7.20290313,0.356869638 7.20290313,0.797084415 L7.20290313,7.20292804 L0.797084415,7.20292804 C0.356869638,7.20292804 0,7.55979768 0,8.00001245 C0,8.44022723 0.356869638,8.79709687 0.797084415,8.79709687 L7.20290313,8.79709687 L7.20290313,15.2029156 C7.20290313,15.6431304 7.55977277,16 7.99998755,16 C8.44020232,16 8.79707196,15.6431304 8.79707196,15.2029156 L8.79707196,8.79709687 L15.2029156,8.79709687 C15.6431304,8.79709687 16,8.44022723 16,8.00001245 C16,7.55979768 15.6431304,7.20292804 15.2029156,7.20292804 Z" id="路径"></path>
            </g>
        </g>
    </g>
</svg>