<?xml version="1.0" encoding="UTF-8"?>
<svg width="12px" height="12px" viewBox="0 0 12 12" version="1.1" xmlns="http://www.w3.org/2000/svg" xmlns:xlink="http://www.w3.org/1999/xlink">
    <title>编组</title>
    <g id="系统管理" stroke="none" stroke-width="1" fill="none" fill-rule="evenodd">
        <g id="菜单管理" transform="translate(-283.000000, -218.000000)" fill="#FFFFFF" fill-rule="nonzero">
            <g id="编组" transform="translate(283.000000, 218.000000)">
                <path d="M5,5 L1.0025,5 C0.736931683,4.99960192 0.482089495,5.10475109 0.294069831,5.29230188 C0.106050167,5.47985266 0.000265007021,5.73443151 0,6 C0,6.556 0.449000004,7 1.0025,7 L5,7 L5,10.9975 C5,11.5515 5.44750001,12 6,12 C6.556,12 7,11.551 7,10.9975 L7,7 L10.9975,7 C11.2630683,7.00039808 11.5179105,6.89524891 11.7059302,6.70769812 C11.8939498,6.52014734 11.999735,6.26556849 12,6 C12,5.444 11.551,5 10.9975,5 L7,5 L7,1.0025 C7.00039808,0.736931683 6.89524891,0.482089495 6.70769812,0.294069831 C6.52014734,0.106050167 6.26556849,0.000265007021 6,0 C5.444,0 5,0.449000004 5,1.0025 L5,5 Z" id="路径"></path>
            </g>
        </g>
    </g>
</svg>