<?xml version="1.0" encoding="UTF-8"?>
<svg width="16px" height="16px" viewBox="0 0 16 16" version="1.1" xmlns="http://www.w3.org/2000/svg" xmlns:xlink="http://www.w3.org/1999/xlink">
    <title>下拉备份_4</title>
    <g id="规范" stroke="none" stroke-width="1" fill="none" fill-rule="evenodd">
        <g id="系统样式1" transform="translate(-250.000000, -78.000000)" fill-rule="nonzero">
            <g id="下拉备份_4" transform="translate(258.000000, 86.000000) scale(-1, 1) rotate(-90.000000) translate(-258.000000, -86.000000) translate(250.000000, 78.000000)">
                <rect id="矩形" fill="#000000" opacity="0" x="0" y="0" width="16" height="16"></rect>
                <path d="M8.01135937,10.5518594 C7.88534173,10.5518594 7.76462667,10.5011426 7.67642187,10.4111406 L3.61210937,6.26417187 C3.4308125,6.07920312 3.43382812,5.78229687 3.61879687,5.601 C3.80375,5.41973437 4.1006875,5.42271875 4.28195312,5.6076875 L8.01135937,9.41290625 L11.7407344,5.6076875 C11.9220156,5.4226875 12.2189219,5.41967187 12.4039062,5.601 C12.5889062,5.78229687 12.5918906,6.07920312 12.4105937,6.26417187 L8.34628125,10.4111406 C8.25808227,10.5011417 8.13737232,10.5518594 8.01135937,10.5518594 Z" id="路径" fill="#B7B7B7"></path>
            </g>
        </g>
    </g>
</svg>