<?xml version="1.0" encoding="UTF-8"?>
<svg width="8px" height="5px" viewBox="0 0 8 5" version="1.1" xmlns="http://www.w3.org/2000/svg" xmlns:xlink="http://www.w3.org/1999/xlink">
    <title>编组@2x</title>
    <g id="系统管理" stroke="none" stroke-width="1" fill="none" fill-rule="evenodd">
        <g id="新增修改" transform="translate(-243.000000, -409.000000)" fill="#0081FF" fill-rule="nonzero">
            <g id="编组-31" transform="translate(236.000000, 398.000000)">
                <g id="编组" transform="translate(7.000000, 11.000000)">
                    <path d="M6.21521765,0.161814468 C6.42362674,-0.048263535 6.76128879,-0.0545927205 6.97742419,0.14752756 C7.16923068,0.326709106 7.19770451,0.620632494 7.04385831,0.833299145 L6.99242545,0.894018504 L3.1242451,4.83791946 C2.93137563,5.03259441 2.62424127,5.0545762 2.40561363,4.88935233 L2.34417992,4.83506208 L0.147567815,2.56630109 C0.0495657826,2.46549251 -0.00357844314,2.32938259 0.000187326256,2.1888387 C0.00395309566,2.04829481 0.0643097642,1.91522606 0.167569486,1.81981014 C0.362589219,1.63884558 0.659508636,1.62437641 0.871199706,1.78552156 L0.930490374,1.83838312 L2.73921293,3.70496766 L6.2145033,0.161814468 L6.21521765,0.161814468 Z" id="路径"></path>
                </g>
            </g>
        </g>
    </g>
</svg>