<?xml version="1.0" encoding="UTF-8"?>
<svg width="14px" height="14px" viewBox="0 0 14 14" version="1.1" xmlns="http://www.w3.org/2000/svg" xmlns:xlink="http://www.w3.org/1999/xlink">
    <title>编组备份_6</title>
    <g id="接待回访" stroke="none" stroke-width="1" fill="none" fill-rule="evenodd">
        <g id="新增问卷" transform="translate(-1848.000000, -187.000000)" fill="#FAAD14" fill-rule="nonzero">
            <g id="编组备份_6" transform="translate(1848.000000, 187.000000)">
                <path d="M7.80967258,6.9997136 L13.8322389,0.977720043 C13.9769242,0.833034805 14.0334302,0.622151473 13.9804717,0.42450776 C13.9275133,0.226864046 13.773136,0.0724867326 13.5754922,0.0195282602 C13.3778485,-0.0334302122 13.1669652,0.0230758084 13.02228,0.167761051 L6.99971359,6.1897546 L0.977720037,0.167761051 C0.833034798,0.023075812 0.622151468,-0.0334302059 0.424507757,0.019528267 C0.226864046,0.0724867398 0.0724867338,0.226864052 0.0195282609,0.424507763 C-0.033430212,0.622151474 0.0230758059,0.833034804 0.167761044,0.977720043 L6.1897546,6.9997136 L0.167761044,13.0217071 C-0.0559029552,13.2453711 -0.0559029552,13.6080021 0.167761044,13.8316661 C0.391425044,14.0553301 0.754056037,14.0553301 0.977720037,13.8316661 L6.99971359,7.80967259 L13.0217071,13.832239 C13.1663924,13.9769242 13.3772757,14.0334302 13.5749194,13.9804717 C13.7725631,13.9275133 13.9269404,13.773136 13.9798989,13.5754922 C14.0328574,13.3778485 13.9763514,13.1669652 13.8316661,13.02228 L7.80967258,6.9997136 Z" id="路径"></path>
            </g>
        </g>
    </g>
</svg>