<?xml version="1.0" encoding="UTF-8"?>
<svg width="14px" height="4px" viewBox="0 0 14 4" version="1.1" xmlns="http://www.w3.org/2000/svg" xmlns:xlink="http://www.w3.org/1999/xlink">
    <title>编组备份_36</title>
    <g id="系统管理" stroke="none" stroke-width="1" fill="none" fill-rule="evenodd">
        <g id="菜单管理" transform="translate(-1846.000000, -328.000000)" fill="#8291A9" fill-rule="nonzero">
            <g id="编组备份_36" transform="translate(1846.000000, 328.000000)">
                <path d="M0,1.55555556 C0,2.41466517 0.696445945,3.11111111 1.55555556,3.11111111 C2.41466517,3.11111111 3.11111111,2.41466517 3.11111111,1.55555556 C3.11111111,0.696445945 2.41466517,0 1.55555556,0 C0.696445945,0 0,0.696445945 0,1.55555556 Z" id="路径"></path>
                <path d="M5.44444444,1.55555556 C5.44444444,2.41466517 6.14089039,3.11111111 7,3.11111111 C7.85910961,3.11111111 8.55555556,2.41466517 8.55555556,1.55555556 C8.55555556,0.696445945 7.85910961,0 7,0 C6.14089039,0 5.44444444,0.696445945 5.44444444,1.55555556 Z" id="路径"></path>
                <path d="M10.8888889,1.55555556 C10.8888889,2.41466517 11.5853348,3.11111111 12.4444444,3.11111111 C13.3035541,3.11111111 14,2.41466517 14,1.55555556 C14,0.696445945 13.3035541,0 12.4444444,0 C11.5853348,0 10.8888889,0.696445945 10.8888889,1.55555556 Z" id="路径"></path>
            </g>
        </g>
    </g>
</svg>