<?xml version="1.0" encoding="UTF-8"?>
<svg width="18px" height="18px" viewBox="0 0 18 18" version="1.1" xmlns="http://www.w3.org/2000/svg" xmlns:xlink="http://www.w3.org/1999/xlink">
    <title>编组_25</title>
    <g id="系统管理" stroke="none" stroke-width="1" fill="none" fill-rule="evenodd">
        <g id="主体管理" transform="translate(-1841.000000, -321.000000)">
            <g id="编组_25" transform="translate(1841.000000, 321.000000)">
                <g id="编组备份-15" transform="translate(1.000000, 7.000000)" fill="#8291A9" fill-rule="nonzero">
                    <path d="M0,1.77777778 C0,2.75961733 0.795938223,3.55555556 1.77777778,3.55555556 C2.75961733,3.55555556 3.55555556,2.75961733 3.55555556,1.77777778 C3.55555556,0.795938223 2.75961733,0 1.77777778,0 C0.795938223,0 0,0.795938223 0,1.77777778 Z" id="路径"></path>
                    <path d="M6.22222222,1.77777778 C6.22222222,2.75961733 7.01816044,3.55555556 8,3.55555556 C8.98183956,3.55555556 9.77777778,2.75961733 9.77777778,1.77777778 C9.77777778,0.795938223 8.98183956,0 8,0 C7.01816044,0 6.22222222,0.795938223 6.22222222,1.77777778 Z" id="路径"></path>
                    <path d="M12.4444444,1.77777778 C12.4444444,2.75961733 13.2403827,3.55555556 14.2222222,3.55555556 C15.2040618,3.55555556 16,2.75961733 16,1.77777778 C16,0.795938223 15.2040618,0 14.2222222,0 C13.2403827,0 12.4444444,0.795938223 12.4444444,1.77777778 Z" id="路径"></path>
                </g>
                <rect id="矩形" x="0" y="0" width="18" height="18"></rect>
            </g>
        </g>
    </g>
</svg>