<?xml version="1.0" encoding="UTF-8"?>
<svg width="10px" height="11px" viewBox="0 0 10 11" version="1.1" xmlns="http://www.w3.org/2000/svg" xmlns:xlink="http://www.w3.org/1999/xlink">
    <title>编组</title>
    <g id="系统管理" stroke="none" stroke-width="1" fill="none" fill-rule="evenodd">
        <g id="菜单管理" transform="translate(-360.000000, -219.000000)" fill-rule="nonzero">
            <g id="编组" transform="translate(360.000000, 219.000000)">
                <path d="M4.85050323,0.122587355 L0.150324621,3.87794634 C-0.029071509,4.02146325 0.0785661689,4.30849705 0.293841525,4.30849705 L9.68223899,4.30849705 C9.90947409,4.30849705 10.005152,4.02146325 9.83771564,3.87794634 L5.14949677,0.122587355 C5.06577858,0.0508289035 4.94618116,0.0508289035 4.85050323,0.122587355 Z" id="路径" fill="#BFBFBF"></path>
                <path d="M9.69419873,4.36829576 L0.305801267,4.36829576 C0.174244105,4.36829576 0.0666064269,4.28457757 0.0187674589,4.16498015 C-0.029071509,4.04538273 0.0187674589,3.91382557 0.114445395,3.83010737 L4.814624,0.0627886455 C4.92226168,-0.0209295485 5.07773832,-0.0209295485 5.185376,0.0627886455 L9.87359486,3.83010737 C9.9692728,3.91382557 10.005152,4.04538273 9.9692728,4.16498015 C9.93339357,4.28457757 9.81379615,4.36829576 9.69419873,4.36829576 Z M4.89834219,0.170426323 L0.186203847,3.92578531 C0.114445395,3.98558402 0.114445395,4.06930221 0.126405137,4.12910092 C0.150324621,4.18889963 0.198163589,4.24869834 0.293841525,4.24869834 L9.68223899,4.24869834 C9.77791693,4.24869834 9.8257559,4.18889963 9.84967538,4.12910092 C9.87359486,4.06930221 9.86163512,3.98558402 9.78987667,3.92578531 L5.10165781,0.158466581 C5.05381884,0.110627613 4.9581409,0.110627613 4.89834219,0.170426323 Z" id="形状"></path>
                <path d="M4.85050323,10.6232408 L0.150324621,6.8559221 C-0.029071509,6.71240519 0.0785661689,6.42537139 0.293841525,6.42537139 L9.68223899,6.42537139 C9.90947409,6.42537139 10.005152,6.71240519 9.83771564,6.8559221 L5.14949677,10.6232408 C5.06577858,10.6949993 4.94618116,10.6949993 4.85050323,10.6232408 Z" id="路径" fill="#999999"></path>
                <path d="M5.00597987,10.7428382 C4.93422142,10.7428382 4.87442271,10.7189188 4.814624,10.6710798 L0.114445395,6.90376107 C0.0187674589,6.82004287 -0.029071509,6.68848571 0.0187674589,6.56888829 C0.0666064269,6.44929087 0.174244105,6.36557268 0.305801267,6.36557268 L9.69419873,6.36557268 C9.8257559,6.36557268 9.93339357,6.44929087 9.98123254,6.56888829 C10.0290715,6.68848571 9.98123254,6.82004287 9.88555461,6.90376107 L5.19733574,10.6710798 C5.13753703,10.7189188 5.06577858,10.7428382 5.00597987,10.7428382 Z M4.89834219,10.5873616 C4.97010065,10.6352006 5.05381884,10.6352006 5.12557729,10.5873616 L9.80183641,6.82004287 C9.87359486,6.76024416 9.87359486,6.67652597 9.86163512,6.61672726 C9.84967538,6.55692855 9.78987667,6.49712984 9.69419873,6.49712984 L0.305801267,6.49712984 C0.210123331,6.49712984 0.162284363,6.55692855 0.138364879,6.61672726 C0.114445395,6.67652597 0.126405137,6.76024416 0.198163589,6.82004287 L4.89834219,10.5873616 Z" id="形状"></path>
            </g>
        </g>
    </g>
</svg>