<?xml version="1.0" encoding="UTF-8"?>
<svg width="12px" height="12px" viewBox="0 0 12 12" version="1.1" xmlns="http://www.w3.org/2000/svg" xmlns:xlink="http://www.w3.org/1999/xlink">
    <title>编组备份_9</title>
    <g id="系统管理" stroke="none" stroke-width="1" fill="none" fill-rule="evenodd">
        <g id="敏感词管理" transform="translate(-363.000000, -216.000000)" fill="#0081FF" fill-rule="nonzero">
            <g id="编组-21" transform="translate(350.000000, 206.000000)">
                <g id="编组备份_9" transform="translate(13.000000, 10.000000)">
                    <path d="M12,10.3290422 L12,6.7504429 C11.9900791,6.41455061 11.7151293,6.14526987 11.3764025,6.14526987 C11.0376757,6.14526987 10.7627259,6.41455061 10.752805,6.7504429 L10.752805,9.82591237 L1.24719499,9.82591237 L1.24719499,6.7504429 C1.23727412,6.41455061 0.962324318,6.14526987 0.623597496,6.14526987 C0.284870674,6.14526987 0.00992086926,6.41455061 0,6.7504429 L0,10.3290422 C0,10.7386323 0.334475021,11.0731074 0.744065194,11.0731074 L11.2573521,11.0731074 C11.665525,11.0731074 12,10.7386323 12,10.3290422 Z" id="路径"></path>
                    <path d="M5.55993859,7.12176686 C5.80229125,7.36411952 6.19912602,7.36411952 6.44147868,7.12176686 L8.76579662,4.79744892 C9.00814929,4.55509626 9.00814929,4.15826149 8.76579662,3.91590882 C8.52344396,3.67355616 8.12660919,3.67355616 7.88425653,3.91590882 L6.66965867,5.13050667 L6.66965867,0.668950041 C6.66965867,0.300460612 6.3677808,0 6.00070863,0 C5.6322192,0 5.33175859,0.301877879 5.33175859,0.668950041 L5.33175859,5.12908941 L4.11716074,3.91449156 C3.87480808,3.67213889 3.47797331,3.67213889 3.23562064,3.91449156 C2.99326798,4.15684422 2.99326798,4.55367899 3.23562064,4.79603165 L5.55993859,7.12176686 L5.55993859,7.12176686 Z" id="路径" transform="translate(6.000709, 3.651766) scale(1, -1) translate(-6.000709, -3.651766) "></path>
                </g>
            </g>
        </g>
    </g>
</svg>