<?xml version="1.0" encoding="UTF-8"?>
<svg width="18px" height="18px" viewBox="0 0 18 18" version="1.1" xmlns="http://www.w3.org/2000/svg" xmlns:xlink="http://www.w3.org/1999/xlink">
    <title>字符小</title>
    <g id="规范" stroke="none" stroke-width="1" fill="none" fill-rule="evenodd">
        <g id="系统样式1" transform="translate(-1543.000000, -21.000000)" fill-rule="nonzero">
            <g id="字符小" transform="translate(1543.000000, 21.000000)">
                <rect id="矩形" fill="currentColor" opacity="0" x="0" y="0" width="18" height="18"></rect>
                <path d="M15.2193691,8.18173828 L13.3792559,8.18173828 L11.901375,12.1698633 L12.5415,14.1795 L12.5508691,14.15025 L15.7406309,14.15025 L16.40475,16.2243809 L18,16.2243809 L15.2193691,8.18173828 Z M14.1314941,9.67763672 L15.341625,12.8883867 L12.9225059,12.8883867 L14.1314941,9.67763672 Z M4.753125,1.47225586 L0,16.5277441 L2.20236328,16.5277441 L3.32736328,12.9446191 L8.83313086,12.9446191 L9.97613086,16.5277441 L12.733875,16.5277441 L7.929,1.47225586 L4.753125,1.47225586 Z M3.96675,10.6207559 L6.05098828,3.90000586 L8.14013086,10.6207559 L3.96675,10.6207559 Z" id="形状" fill="currentColor"></path>
            </g>
        </g>
    </g>
</svg>