<?xml version="1.0" encoding="UTF-8"?>
<svg width="18px" height="18px" viewBox="0 0 18 18" version="1.1" xmlns="http://www.w3.org/2000/svg" xmlns:xlink="http://www.w3.org/1999/xlink">
    <title>9E全屏</title>
    <g id="规范" stroke="none" stroke-width="1" fill="none" fill-rule="evenodd">
        <g id="系统样式1" transform="translate(-1483.000000, -21.000000)" fill-rule="nonzero">
            <g id="9E全屏" transform="translate(1483.000000, 21.000000)">
                <rect id="矩形" fill="currentColor" opacity="0" x="0" y="0" width="18" height="18"></rect>
                <path d="M6.72732422,16.875 L1.125,16.875 L1.125,11.2726758 L3.34476562,11.2726758 L3.34476562,14.6552344 L6.72732422,14.6552344 L6.72732422,16.875 Z M14.6552344,11.2726758 L16.875,11.2726758 L16.875,16.875 L11.2726758,16.875 L11.2726758,14.6552344 L14.6552344,14.6552344 L14.6552344,11.2726758 Z M11.2726758,1.125 L16.875,1.125 L16.875,6.72732422 L14.6552344,6.72732422 L14.6552344,3.34476562 L11.2726758,3.34476562 L11.2726758,1.125 Z M1.125,1.125 L6.72732422,1.125 L6.72732422,3.34476562 L3.34476562,3.34476562 L3.34476562,6.72732422 L1.125,6.72732422 L1.125,1.125 Z" id="形状" fill="currentColor"></path>
            </g>
        </g>
    </g>
</svg>