<?xml version="1.0" encoding="UTF-8"?>
<svg width="50px" height="50px" viewBox="0 0 50 50" version="1.1" xmlns="http://www.w3.org/2000/svg" xmlns:xlink="http://www.w3.org/1999/xlink">
    <title>编组_18</title>
    <g id="系统管理" stroke="none" stroke-width="1" fill="none" fill-rule="evenodd">
        <g id="菜单管理" transform="translate(-1705.000000, -198.000000)">
            <g id="编组_18" transform="translate(1705.000000, 198.000000)">
                <rect id="矩形备份-17" x="0" y="0" width="50" height="50"></rect>
                <g id="编组" transform="translate(17.000000, 17.000000)" fill="#8291A9" fill-rule="nonzero">
                    <path d="M15.3571429,9.85714286 C15.0021027,9.85714286 14.7142857,10.1449598 14.7142857,10.5 L14.7142857,14.7142857 L10.5,14.7142857 C10.1449598,14.7142857 9.85714286,15.0021027 9.85714286,15.3571429 C9.85714286,15.7121831 10.1449598,16 10.5,16 L15.3571429,16 C15.7121831,16 16,15.7121831 16,15.3571429 L16,10.5 C16,10.1449598 15.7121831,9.85714286 15.3571429,9.85714286 L15.3571429,9.85714286 Z M5.5,0 L0.642857143,0 C0.287816947,0 0,0.287816947 0,0.642857143 L0,5.5 C0,5.8550402 0.287816947,6.14285714 0.642857143,6.14285714 C0.997897339,6.14285714 1.28571429,5.8550402 1.28571429,5.5 L1.28571429,1.28571429 L5.5,1.28571429 C5.8550402,1.28571429 6.14285714,0.997897339 6.14285714,0.642857143 C6.14285714,0.287816947 5.8550402,0 5.5,0 Z M15.3571429,0 L10.5,0 C10.1449598,0 9.85710104,0.287816947 9.85710104,0.642857143 C9.85710104,0.997897339 10.1449598,1.28571429 10.5,1.28571429 L13.8051786,1.28571429 L10.0453571,5.04535714 C9.79431414,5.29644946 9.79435411,5.70351057 10.0454464,5.95455357 C10.2965387,6.20559658 10.7035999,6.2055566 10.9546429,5.95446429 L14.7142857,2.19482143 L14.7142857,5.5 C14.7142857,5.8550402 15.0021027,6.14285714 15.3571429,6.14285714 C15.7121831,6.14285714 16,5.8550402 16,5.5 L16,0.642857143 C16,0.287816947 15.7121831,0 15.3571429,0 L15.3571429,0 Z M5.5,9.85714218 C5.3294121,9.85689462 5.16577208,9.92470303 5.04535714,10.0455357 L1.28571429,13.8051786 L1.28571429,10.5 C1.28571429,10.1449598 0.997897339,9.85714218 0.642857143,9.85714218 C0.287816947,9.85714218 0,10.1449598 0,10.5 L0,15.3571422 C0,15.7121831 0.287816947,16 0.642857143,16 L5.5,16 C5.8550402,16 6.14285714,15.7121831 6.14285714,15.3571422 C6.14285714,15.0021027 5.8550402,14.7142857 5.5,14.7142857 L2.19482143,14.7142857 L5.95464286,10.9546429 C6.13856136,10.7707844 6.19359054,10.4942276 6.09406269,10.2539691 C5.99453485,10.0137106 5.76005756,9.85714218 5.5,9.85714218 Z" id="形状"></path>
                </g>
            </g>
        </g>
    </g>
</svg>