<?xml version="1.0" encoding="UTF-8"?>
<svg width="19px" height="18px" viewBox="0 0 19 18" version="1.1" xmlns="http://www.w3.org/2000/svg" xmlns:xlink="http://www.w3.org/1999/xlink">
    <title>编组_2</title>
    <g id="规范" stroke="none" stroke-width="1" fill="none" fill-rule="evenodd">
        <g id="系统样式1" transform="translate(-1602.000000, -21.000000)">
            <g id="编组_2" transform="translate(1603.000000, 22.000000)">
                <g id="general/language" fill="#8291A9" fill-rule="nonzero">
                    <path d="M14.841544,13.165108 C14.841544,13.165108 15.6572679,12.8408777 15.6572679,12.8408777 C15.6572679,12.8408777 15.6513041,12.8265804 15.6513041,12.8265804 C15.6513041,12.8265804 14.841544,13.165108 14.841544,13.165108 C14.841544,13.165108 14.841544,13.165108 14.841544,13.165108 Z M13.0069331,8.77674189 C13.0069331,8.77674189 13.816693,8.43821289 13.816693,8.43821289 C13.816693,8.43821289 13.591293,7.89906735 13.591293,7.89906735 C13.591293,7.89906735 13.0069331,7.89906735 13.0069331,7.89906735 C13.0069331,7.89906735 13.0069331,8.77674189 13.0069331,8.77674189 C13.0069331,8.77674189 13.0069331,8.77674189 13.0069331,8.77674189 Z M12.4452175,8.77674189 C12.4452175,8.77674189 12.4452175,7.89906735 12.4452175,7.89906735 C12.4452175,7.89906735 11.8608576,7.89906735 11.8608576,7.89906735 C11.8608576,7.89906735 11.6354708,8.43820893 11.6354708,8.43820893 C11.6354708,8.43820893 12.4452175,8.77674189 12.4452175,8.77674189 C12.4452175,8.77674189 12.4452175,8.77674189 12.4452175,8.77674189 Z M10.6105933,13.165108 C10.6105933,13.165108 9.80070324,12.8265277 9.80070324,12.8265277 C9.80070324,12.8265277 9.79494874,12.8410095 9.79494874,12.8410095 C9.79494874,12.8410095 10.6105933,13.165108 10.6105933,13.165108 C10.6105933,13.165108 10.6105933,13.165108 10.6105933,13.165108 Z M15.1903935,14.0427866 C15.1903935,14.0427866 16.0059981,13.7185958 16.0059981,13.7185958 C16.0059981,13.7185958 16.0059981,13.7185958 16.0059981,13.7185958 C16.0059981,13.7185958 15.1903935,14.0427866 15.1903935,14.0427866 C15.1903935,14.0427866 15.1903935,14.0427866 15.1903935,14.0427866 Z M10.2618363,14.0427866 C10.2618363,14.0427866 9.44619574,13.7186878 9.44619574,13.7186878 C9.44619574,13.7186878 9.44619574,13.7186878 9.44619574,13.7186878 C9.44619574,13.7186878 10.2618363,14.0427866 10.2618363,14.0427866 C10.2618363,14.0427866 10.2618363,14.0427866 10.2618363,14.0427866 Z M15.6513041,12.8265804 C15.6513041,12.8265804 13.816693,8.43821289 13.816693,8.43821289 C13.816693,8.43821289 12.1971736,9.11527088 12.1971736,9.11527088 C12.1971736,9.11527088 14.0317844,13.5036359 14.0317844,13.5036359 C14.0317844,13.5036359 15.6513041,12.8265804 15.6513041,12.8265804 C15.6513041,12.8265804 15.6513041,12.8265804 15.6513041,12.8265804 Z M13.0069331,7.89906735 C13.0069331,7.89906735 12.4452175,7.89906735 12.4452175,7.89906735 C12.4452175,7.89906735 12.4452175,9.65441642 12.4452175,9.65441642 C12.4452175,9.65441642 13.0069331,9.65441642 13.0069331,9.65441642 C13.0069331,9.65441642 13.0069331,7.89906735 13.0069331,7.89906735 C13.0069331,7.89906735 13.0069331,7.89906735 13.0069331,7.89906735 Z M11.6354708,8.43820893 C11.6354708,8.43820893 9.80083095,12.8265804 9.80083095,12.8265804 C9.80083095,12.8265804 11.4203398,13.503649 11.4203398,13.503649 C11.4203398,13.503649 13.254977,9.11527484 13.254977,9.11527484 C13.254977,9.11527484 11.6354708,8.43820893 11.6354708,8.43820893 C11.6354708,8.43820893 11.6354708,8.43820893 11.6354708,8.43820893 Z M14.0259393,13.489299 C14.0259393,13.489299 14.3747883,14.3669777 14.3747883,14.3669777 C14.3747883,14.3669777 16.0059981,13.7185958 16.0059981,13.7185958 C16.0059981,13.7185958 15.6571492,12.8409304 15.6571492,12.8409304 C15.6571492,12.8409304 14.0259393,13.489299 14.0259393,13.489299 C14.0259393,13.489299 14.0259393,13.489299 14.0259393,13.489299 Z M14.3747883,14.3669777 C14.3747883,14.3669777 15.421362,17 15.421362,17 C15.421362,17 17.0525719,16.3516178 17.0525719,16.3516178 C17.0525719,16.3516178 16.0059981,13.7185958 16.0059981,13.7185958 C16.0059981,13.7185958 14.3747883,14.3669777 14.3747883,14.3669777 C14.3747883,14.3669777 14.3747883,14.3669777 14.3747883,14.3669777 Z M9.79494874,12.8410095 C9.79494874,12.8410095 9.44619574,13.7186878 9.44619574,13.7186878 C9.44619574,13.7186878 11.0774808,14.3668854 11.0774808,14.3668854 C11.0774808,14.3668854 11.4262246,13.4892199 11.4262246,13.4892199 C11.4262246,13.4892199 9.79494874,12.8410095 9.79494874,12.8410095 C9.79494874,12.8410095 9.79494874,12.8410095 9.79494874,12.8410095 Z M9.44619574,13.7186878 C9.44619574,13.7186878 8.39993796,16.3517101 8.39993796,16.3517101 C8.39993796,16.3517101 10.0312191,16.9999077 10.0312191,16.9999077 C10.0312191,16.9999077 11.0774808,14.3668854 11.0774808,14.3668854 C11.0774808,14.3668854 9.44619574,13.7186878 9.44619574,13.7186878 C9.44619574,13.7186878 9.44619574,13.7186878 9.44619574,13.7186878 Z M15.1903935,13.165108 C15.1903935,13.165108 10.2618363,13.165108 10.2618363,13.165108 C10.2618363,13.165108 10.2618363,14.9204649 10.2618363,14.9204649 C10.2618363,14.9204649 15.1903935,14.9204649 15.1903935,14.9204649 C15.1903935,14.9204649 15.1903935,13.165108 15.1903935,13.165108 C15.1903935,13.165108 15.1903935,13.165108 15.1903935,13.165108 Z" id="Vector"></path>
                    <path d="M4.40541529,0.172125931 C4.40541529,0.172125931 4.84425193,2.36631036 4.84425193,2.36631036 C4.84425193,2.36631036 6.56551261,2.02205587 6.56551261,2.02205587 C6.56551261,2.02205587 6.12667472,-0.172125931 6.12667472,-0.172125931 C6.12667472,-0.172125931 4.40541529,0.172125931 4.40541529,0.172125931 C4.40541529,0.172125931 4.40541529,0.172125931 4.40541529,0.172125931 Z" id="Vector"></path>
                    <path d="M5.53424447,7.97537207 C5.53424447,7.97537207 6.12874115,7.32970216 6.12874115,7.32970216 C6.12874115,7.32970216 6.1287151,7.32968898 6.1287151,7.32968898 C6.1287151,7.32968898 5.53424447,7.97537207 5.53424447,7.97537207 C5.53424447,7.97537207 5.53424447,7.97537207 5.53424447,7.97537207 Z M2.63302235,2.63302235 C1.77984675,2.83894576 1.77989548,2.83914323 1.7799468,2.83935388 C1.77996783,2.83944208 1.78002182,2.83966721 1.78006396,2.8398423 C1.78014957,2.84019512 1.78024828,2.8405993 1.78035885,2.84105745 C1.78058139,2.8419711 1.78085517,2.8430954 1.78118169,2.8444277 C1.78183472,2.84709102 1.78269569,2.85058371 1.78376736,2.8548887 C1.78590928,2.86349605 1.78889248,2.87534992 1.79273014,2.89029758 C1.80040272,2.92018766 1.81149966,2.96247795 1.82612737,3.01594149 C1.85536975,3.12281846 1.89880535,3.27465434 1.95730722,3.46158969 C2.07408831,3.83475479 2.25208854,4.35158287 2.49877243,4.93200623 C2.98456244,6.07502768 3.76933075,7.54343798 4.9397605,8.62105485 C4.9397605,8.62105485 6.1287151,7.32968898 6.1287151,7.32968898 C5.22686532,6.49935236 4.5610135,5.29657461 4.11426864,4.24541946 C3.89468765,3.72875327 3.73593745,3.26773346 3.63253737,2.937326 C3.58094723,2.77247511 3.54343197,2.64109336 3.51924762,2.5526991 C3.50716203,2.50852726 3.49842705,2.47516871 3.49294504,2.45381884 C3.49020541,2.44314589 3.4882807,2.43548247 3.4871603,2.43097738 C3.48659947,2.42872482 3.48624008,2.42726351 3.48607945,2.42661052 C3.48600043,2.42628402 3.48597022,2.42616026 3.48598992,2.42624057 C3.48599917,2.42628137 3.48602154,2.42637222 3.48605575,2.42651573 C3.48607419,2.42658682 3.48610841,2.42673295 3.48611766,2.4267685 C3.4861558,2.42692779 3.48619794,2.42709894 2.63302235,2.63302235 C2.63302235,2.63302235 2.63302235,2.63302235 2.63302235,2.63302235 Z M4.93974747,8.62104167 C6.050093,9.6433788 7.47824433,10.5410946 8.59871345,11.1726509 C9.16460273,11.4916152 9.66369254,11.7491512 10.0221255,11.9273545 C10.2015133,12.0165481 10.346132,12.0860859 10.4468055,12.1337304 C10.4971494,12.1575728 10.536539,12.175938 10.5638303,12.1885767 C10.5774696,12.1948957 10.588107,12.1997929 10.5955586,12.2032029 C10.5992975,12.2049142 10.6022329,12.206257 10.6043661,12.2072313 C10.605432,12.2077184 10.6062876,12.2081133 10.6069462,12.2084033 C10.6072751,12.2085609 10.6075651,12.2086927 10.6077886,12.208785 C10.6078941,12.2088377 10.6080259,12.2089036 10.6080918,12.20893 C10.6082099,12.2089821 10.6083153,12.2090348 10.9709267,11.4097639 C11.3335418,10.6105006 11.3336208,10.6105401 11.3336868,10.6105665 C11.3336868,10.6105665 11.3337527,10.6105928 11.3337527,10.6105928 C11.333779,10.610606 11.3337527,10.6105928 11.3336736,10.6105665 C11.3335154,10.6104874 11.3331601,10.6103298 11.3325938,10.6100661 C11.3314752,10.6095658 11.3295661,10.6086838 11.3268674,10.6074465 C11.3214693,10.6049712 11.3129386,10.6010615 11.3014456,10.5957293 C11.2784456,10.5850787 11.2435189,10.568794 11.1978229,10.5471632 C11.1064045,10.5038897 10.9719882,10.4392755 10.8035805,10.3555453 C10.4664218,10.1879273 9.99488692,9.94462269 9.46063368,9.64348364 C8.38083126,9.03484757 7.0906371,8.21535899 6.12874115,7.32970216 C6.12874115,7.32970216 4.93974747,8.62104167 4.93974747,8.62104167 C4.93974747,8.62104167 4.93974747,8.62104167 4.93974747,8.62104167 Z" id="Vector"></path>
                    <path d="M3.83029933,7.97537207 C3.83029933,7.97537207 4.42479602,7.32970216 4.42479602,7.32970216 C4.42479602,7.32970216 4.42476996,7.32968898 4.42476996,7.32968898 C4.42476996,7.32968898 3.83029933,7.97537207 3.83029933,7.97537207 C3.83029933,7.97537207 3.83029933,7.97537207 3.83029933,7.97537207 Z M0.92907721,2.63302235 C0.0759016164,2.83894576 0.0759503464,2.83914323 0.0760016659,2.83935388 C0.0760226959,2.83944208 0.0760766834,2.83966721 0.0761188218,2.8398423 C0.0762044328,2.84019512 0.0763031483,2.8405993 0.0764137128,2.84105745 C0.0766362542,2.8419711 0.0769100367,2.8430954 0.0772365511,2.8444277 C0.0778895799,2.84709102 0.0787505548,2.85058371 0.079822222,2.8548887 C0.0819641441,2.86349605 0.0849473449,2.87534992 0.0887850076,2.89029758 C0.0964575865,2.92018766 0.107554526,2.96247795 0.12218223,3.01594149 C0.151424614,3.12281846 0.194860213,3.27465434 0.253362087,3.46158969 C0.370143176,3.83475479 0.548143404,4.35158287 0.794827296,4.93200623 C1.2806173,6.07502768 2.06538562,7.54343798 3.23581537,8.62105485 C3.23581537,8.62105485 4.42476996,7.32968898 4.42476996,7.32968898 C3.52292018,6.49935236 2.85706837,5.29657461 2.4103235,4.24541946 C2.19074251,3.72875327 2.03199232,3.26773346 1.92859224,2.937326 C1.8770021,2.77247511 1.83948684,2.64109336 1.81530248,2.5526991 C1.8032169,2.50852726 1.79448191,2.47516871 1.78899991,2.45381884 C1.78626028,2.44314589 1.78433556,2.43548247 1.78321516,2.43097738 C1.78265434,2.42872482 1.78229494,2.42726351 1.78213431,2.42661052 C1.7820553,2.42628402 1.78202508,2.42616026 1.78204478,2.42624057 C1.78205404,2.42628137 1.7820764,2.42637222 1.78211062,2.42651573 C1.78212906,2.42658682 1.78216327,2.42673295 1.78217253,2.4267685 C1.78221067,2.42692779 1.7822528,2.42709894 0.92907721,2.63302235 C0.92907721,2.63302235 0.92907721,2.63302235 0.92907721,2.63302235 Z M3.23580234,8.62104167 C4.34614786,9.6433788 5.77429919,10.5410946 6.89476831,11.1726509 C7.46065759,11.4916152 7.9597474,11.7491512 8.31818035,11.9273545 C8.49756821,12.0165481 8.64218687,12.0860859 8.74286034,12.1337304 C8.7932043,12.1575728 8.83259382,12.175938 8.85988512,12.1885767 C8.8735245,12.1948957 8.88416191,12.1997929 8.89161344,12.2032029 C8.89535239,12.2049142 8.8982878,12.206257 8.90042093,12.2072313 C8.90148687,12.2077184 8.90234251,12.2081133 8.90300103,12.2084033 C8.90332998,12.2085609 8.90362001,12.2086927 8.90384349,12.208785 C8.90394895,12.2088377 8.90408078,12.2089036 8.9041467,12.20893 C8.90426472,12.2089821 8.90437018,12.2090348 9.26698151,11.4097639 C9.62959661,10.6105006 9.62967571,10.6105401 9.62974163,10.6105665 C9.62974163,10.6105665 9.62980754,10.6105928 9.62980754,10.6105928 C9.62983391,10.610606 9.62980754,10.6105928 9.62972844,10.6105665 C9.62957025,10.6104874 9.62921494,10.6103298 9.62864869,10.6100661 C9.62753002,10.6095658 9.625621,10.6086838 9.62292226,10.6074465 C9.61752413,10.6049712 9.60899348,10.6010615 9.59750043,10.5957293 C9.5745005,10.5850787 9.53957374,10.568794 9.49387773,10.5471632 C9.40245934,10.5038897 9.26804306,10.4392755 9.09963538,10.3555453 C8.76247663,10.1879273 8.29094178,9.94462269 7.75668854,9.64348364 C6.67688612,9.03484757 5.38669197,8.21535899 4.42479602,7.32970216 C4.42479602,7.32970216 3.23580234,8.62104167 3.23580234,8.62104167 C3.23580234,8.62104167 3.23580234,8.62104167 3.23580234,8.62104167 Z" id="Vector" transform="translate(4.852910, 7.317574) scale(1, -1) rotate(180.000000) translate(-4.852910, -7.317574) "></path>
                    <line x1="0" y1="2.63302235" x2="11.4097639" y2="2.76467346" id="Vector"></line>
                </g>
                <line x1="0.507405364" y1="2.53702682" x2="10.6555126" y2="2.53702682" id="直线" stroke="#8291A9" stroke-width="1.5" stroke-linecap="square"></line>
            </g>
        </g>
    </g>
</svg>