<?xml version="1.0" encoding="UTF-8"?>
<svg width="3px" height="15px" viewBox="0 0 3 15" version="1.1" xmlns="http://www.w3.org/2000/svg" xmlns:xlink="http://www.w3.org/1999/xlink">
    <title>编组备份_2</title>
    <g id="主体管理4.0" stroke="none" stroke-width="1" fill="none" fill-rule="evenodd">
        <g id="主体收起" transform="translate(-508.000000, -297.000000)" fill="#999999" fill-rule="nonzero">
            <g id="编组备份_2" transform="translate(508.000000, 297.000000)">
                <path d="M1.50000004,3 C0.671572903,3 3.5914421e-08,2.3284271 3.5914421e-08,1.5 C3.5914421e-08,0.671572867 0.671572903,-2.22044605e-16 1.50000004,-2.22044605e-16 C2.32842713,-2.22044605e-16 3.00000004,0.671572867 3.00000004,1.5 C3.00000004,2.3284271 2.32842713,3 1.50000004,3 Z M1.5,8.99999993 C0.964101632,8.99999993 0.468911096,8.71410151 0.200961898,8.2499999 C-0.0669872994,7.78589829 -0.0669872994,7.21410152 0.200961898,6.7499999 C0.468911096,6.28589829 0.964101632,5.99999993 1.5,5.99999993 C2.32842713,5.99999993 3,6.67157279 3,7.49999993 C3,8.32842701 2.32842713,8.99999993 1.5,8.99999993 L1.5,8.99999993 Z M1.50000004,14.9999998 C0.671572903,14.9999998 3.5914421e-08,14.3284269 3.5914421e-08,13.4999998 C3.5914421e-08,12.6715727 0.671572903,11.9999998 1.50000004,11.9999998 C2.32842713,11.9999998 3.00000004,12.6715727 3.00000004,13.4999998 C3.00000004,14.3284269 2.32842713,14.9999998 1.50000004,14.9999998 L1.50000004,14.9999998 Z" id="形状"></path>
            </g>
        </g>
    </g>
</svg>