<?xml version="1.0" encoding="UTF-8"?>
<svg width="50px" height="50px" viewBox="0 0 50 50" version="1.1" xmlns="http://www.w3.org/2000/svg" xmlns:xlink="http://www.w3.org/1999/xlink">
    <title>编组_12</title>
    <g id="规范" stroke="none" stroke-width="1" fill="none" fill-rule="evenodd">
        <g id="系统样式1" transform="translate(-1869.000000, -61.000000)">
            <g id="编组_12" transform="translate(1869.000000, 61.000000)">
                <rect id="矩形" x="0" y="0" width="50" height="50"></rect>
                <g id="icon_应用管理" transform="translate(16.000000, 16.000000)" fill="#8291A9" fill-rule="nonzero">
                    <rect id="矩形" opacity="0" x="0" y="0" width="18" height="18"></rect>
                    <path d="M3.375,2.8125 C3.06433983,2.8125 2.8125,3.06433983 2.8125,3.375 L2.8125,6.75 C2.8125,7.06066017 3.06433983,7.3125 3.375,7.3125 L6.75,7.3125 C7.06066017,7.3125 7.3125,7.06066017 7.3125,6.75 L7.3125,3.375 C7.3125,3.06433983 7.06066017,2.8125 6.75,2.8125 L3.375,2.8125 Z M3.375,1.6875 L6.75,1.6875 C7.68198052,1.6875 8.4375,2.44301948 8.4375,3.375 L8.4375,6.75 C8.4375,7.68198052 7.68198052,8.4375 6.75,8.4375 L3.375,8.4375 C2.44301948,8.4375 1.6875,7.68198052 1.6875,6.75 L1.6875,3.375 C1.6875,2.44301948 2.44301948,1.6875 3.375,1.6875 Z M3.375,10.6875 C3.06433983,10.6875 2.8125,10.9393398 2.8125,11.25 L2.8125,14.625 C2.8125,14.9356602 3.06433983,15.1875 3.375,15.1875 L6.75,15.1875 C7.06066017,15.1875 7.3125,14.9356602 7.3125,14.625 L7.3125,11.25 C7.3125,10.9393398 7.06066017,10.6875 6.75,10.6875 L3.375,10.6875 Z M3.375,9.5625 L6.75,9.5625 C7.68198052,9.5625 8.4375,10.3180195 8.4375,11.25 L8.4375,14.625 C8.4375,15.5569805 7.68198052,16.3125 6.75,16.3125 L3.375,16.3125 C2.44301948,16.3125 1.6875,15.5569805 1.6875,14.625 L1.6875,11.25 C1.6875,10.3180195 2.44301948,9.5625 3.375,9.5625 Z M11.25,10.6875 C10.9393398,10.6875 10.6875,10.9393398 10.6875,11.25 L10.6875,14.625 C10.6875,14.9356602 10.9393398,15.1875 11.25,15.1875 L14.625,15.1875 C14.9356602,15.1875 15.1875,14.9356602 15.1875,14.625 L15.1875,11.25 C15.1875,10.9393398 14.9356602,10.6875 14.625,10.6875 L11.25,10.6875 Z M11.25,9.5625 L14.625,9.5625 C15.5569805,9.5625 16.3125,10.3180195 16.3125,11.25 L16.3125,14.625 C16.3125,15.5569805 15.5569805,16.3125 14.625,16.3125 L11.25,16.3125 C10.3180195,16.3125 9.5625,15.5569805 9.5625,14.625 L9.5625,11.25 C9.5625,10.3180195 10.3180195,9.5625 11.25,9.5625 Z M10.5868125,4.6805625 C10.4811879,4.78606964 10.4218388,4.92923855 10.4218388,5.07853125 C10.4218388,5.22782395 10.4811879,5.37099286 10.5868125,5.4765 L12.5555625,7.44525 C12.6610696,7.55087459 12.8042385,7.61022374 12.9535312,7.61022374 C13.102824,7.61022374 13.2459929,7.55087459 13.3515,7.44525 L15.32025,5.4765 C15.4258746,5.37099286 15.4852237,5.22782395 15.4852237,5.07853125 C15.4852237,4.92923855 15.4258746,4.78606964 15.32025,4.6805625 L13.3515,2.7118125 C13.2459929,2.60618791 13.102824,2.54683876 12.9535312,2.54683876 C12.8042385,2.54683876 12.6610696,2.60618791 12.5555625,2.7118125 L10.5868125,4.6805625 L10.5868125,4.6805625 Z M9.7914375,3.8851875 L11.7601875,1.9164375 C12.0766634,1.59990804 12.5059289,1.42207913 12.9535312,1.42207913 C13.4011336,1.42207913 13.8303991,1.59990804 14.146875,1.9164375 L16.115625,3.8851875 C16.4321545,4.20166335 16.6099834,4.6309289 16.6099834,5.07853125 C16.6099834,5.5261336 16.4321545,5.95539915 16.115625,6.271875 L14.146875,8.240625 C13.8303991,8.55715446 13.4011336,8.73498337 12.9535312,8.73498337 C12.5059289,8.73498337 12.0766634,8.55715446 11.7601875,8.240625 L9.7914375,6.271875 C9.47490804,5.95539915 9.29707913,5.5261336 9.29707913,5.07853125 C9.29707913,4.6309289 9.47490804,4.20166335 9.7914375,3.8851875 L9.7914375,3.8851875 Z" id="形状"></path>
                </g>
            </g>
        </g>
    </g>
</svg>