<?xml version="1.0" encoding="UTF-8"?>
<svg width="15px" height="13px" viewBox="0 0 15 13" version="1.1" xmlns="http://www.w3.org/2000/svg" xmlns:xlink="http://www.w3.org/1999/xlink">
    <title>编组备份</title>
    <g id="接待回访" stroke="none" stroke-width="1" fill="none" fill-rule="evenodd">
        <g id="选择完题目" transform="translate(-1769.000000, -771.000000)" fill="#999999" fill-rule="nonzero">
            <g id="编组备份" transform="translate(1776.500000, 777.407284) scale(1, -1) translate(-1776.500000, -777.407284) translate(1769.000000, 771.000000)">
                <path d="M7.39861787,0.388518714 L0.536581311,0.388518714 C0.240287818,0.388518714 0,0.628806533 0,0.925100026 C0,1.22139352 0.240287818,1.46168134 0.536581311,1.46168134 L7.39845019,1.46168134 C7.69474368,1.46168134 7.9350315,1.22139352 7.9350315,0.925100026 C7.9350315,0.628806533 7.69491136,0.388518714 7.39861787,0.388518714 Z M7.40700196,5.86366027 L0.536581311,5.86366027 C0.240287818,5.86366027 0,6.10394809 0,6.40024158 C0,6.69653507 0.240287818,6.93682289 0.536581311,6.93682289 L7.40700196,6.93682289 C7.70329545,6.93682289 7.94358327,6.69653507 7.94358327,6.40024158 C7.94358327,6.10394809 7.70329545,5.86366027 7.40700196,5.86366027 L7.40700196,5.86366027 Z M7.40700196,11.3725058 L0.544965394,11.3725058 C0.248671901,11.3725058 0.00838408299,11.6127937 0.00838408299,11.9090871 C0.00838408299,12.2053806 0.248671901,12.4456685 0.544965394,12.4456685 L7.40683427,12.4456685 C7.70312777,12.4456685 7.94341567,12.2053806 7.94341567,11.9090871 C7.94358327,11.612626 7.70329545,11.3725058 7.40700196,11.3725058 Z M12.1746946,1.42529442 C11.8784011,1.42529442 11.6381133,1.66558223 11.6381133,1.96187573 L11.6381133,12.2779868 C11.6381133,12.5742803 11.8784011,12.8145681 12.1746946,12.8145681 C12.4709881,12.8145681 12.7112759,12.5742803 12.7112759,12.2779868 L12.7112759,1.96187573 C12.7112759,1.66558223 12.4709881,1.42529442 12.1746946,1.42529442 Z" id="形状"></path>
                <path d="M12.4397993,0.115532972 L14.8252386,2.69330313 C15.0558009,2.94247807 15.0586515,3.34944146 14.8312751,3.60247309 C14.6040665,3.85533703 14.2328193,3.8583553 14.002257,3.60918035 L12.1808988,1.64093303 L10.345623,3.61186326 C10.11439,3.86036748 9.74314284,3.85600776 9.51660492,3.60247309 C9.29006699,3.34877074 9.29392367,2.94180735 9.52515668,2.69347081 L11.9261904,0.114862246 C12.0690551,-0.0385664728 12.2974376,-0.0382311095 12.4397993,0.115532972 L12.4397993,0.115532972 Z" id="路径"></path>
            </g>
        </g>
    </g>
</svg>