<?xml version="1.0" encoding="UTF-8"?>
<svg width="50px" height="50px" viewBox="0 0 50 50" version="1.1" xmlns="http://www.w3.org/2000/svg" xmlns:xlink="http://www.w3.org/1999/xlink">
    <title>编组_9</title>
    <g id="规范" stroke="none" stroke-width="1" fill="none" fill-rule="evenodd">
        <g id="系统样式1" transform="translate(-1819.000000, -61.000000)">
            <g id="编组_9" transform="translate(1819.000000, 61.000000)">
                <rect id="矩形备份-13" x="0" y="0" width="50" height="50"></rect>
                <g id="刷新" transform="translate(17.000000, 17.000000)" fill-rule="nonzero">
                    <rect id="矩形" fill="#000000" opacity="0" x="0" y="0" width="16" height="16"></rect>
                    <path d="M15.2265625,5.8515625 C14.9390625,5.65 14.5375,5.71875 14.334375,6.0078125 L13.81875,6.74375 C13.228125,3.6375 10.496875,1.2796875 7.221875,1.2796875 C3.515625,1.2796875 0.5015625,4.2953125 0.5015625,8 C0.5015625,11.7046875 3.515625,14.7203125 7.221875,14.7203125 C8.775,14.7203125 10.290625,14.178125 11.4875,13.1921875 C11.7609375,12.9671875 11.8,12.5640625 11.575,12.290625 C11.35,12.0171875 10.946875,11.978125 10.6734375,12.203125 C9.7046875,13 8.478125,13.4390625 7.2203125,13.4390625 C4.221875,13.440625 1.78125,11 1.78125,8 C1.78125,5 4.221875,2.559375 7.221875,2.559375 C9.9234375,2.559375 12.1640625,4.5390625 12.584375,7.1234375 L11.6609375,6.475 C11.3734375,6.2734375 10.971875,6.3421875 10.76875,6.63125 C10.5671875,6.91875 10.6359375,7.3203125 10.925,7.5234375 L13.0203125,8.9953125 C13.3078125,9.196875 13.709375,9.128125 13.9125,8.8390625 L15.384375,6.74375 C15.5859375,6.4546875 15.515625,6.0546875 15.2265625,5.8515625 Z" id="路径" fill="#8291A9"></path>
                </g>
            </g>
        </g>
    </g>
</svg>