<?xml version="1.0" encoding="UTF-8"?>
<svg width="50px" height="50px" viewBox="0 0 50 50" version="1.1" xmlns="http://www.w3.org/2000/svg" xmlns:xlink="http://www.w3.org/1999/xlink">
    <title>编组_19</title>
    <g id="系统管理" stroke="none" stroke-width="1" fill="none" fill-rule="evenodd">
        <g id="菜单管理" transform="translate(-1655.000000, -198.000000)">
            <g id="编组_19" transform="translate(1655.000000, 198.000000)">
                <rect id="矩形备份-18" x="0" y="0" width="50" height="50"></rect>
                <g id="编组" transform="translate(17.000000, 17.000000)" fill="#8291A9" fill-rule="nonzero">
                    <path d="M15.7761079,14.8853145 L12.9974748,12.106661 L12.9962708,12.1055182 C13.4724086,11.5418156 13.8606243,10.9093947 14.1477684,10.2296771 C14.5318866,9.32147758 14.7266596,8.35710095 14.7266596,7.36334002 C14.7266596,6.36955867 14.5318866,5.40520245 14.1477684,4.4970029 C13.7768731,3.6201058 13.2460375,2.83270841 12.5700147,2.1566857 C11.8939716,1.48066298 11.1065742,0.94980691 10.2296771,0.578911658 C9.32147758,0.194773062 8.35710095,0 7.36334002,0 C6.36955867,0 5.40520245,0.194773062 4.4970029,0.578911658 C3.6201058,0.94980691 2.83270841,1.48064258 2.1566857,2.1566857 C1.48064258,2.83270841 0.94980691,3.62012621 0.578911658,4.4970029 C0.194773062,5.40520245 0,6.36957908 0,7.36334002 C0,8.35710095 0.194773062,9.32147758 0.578911658,10.2296771 C0.94980691,11.1065946 1.48064258,11.893992 2.1566857,12.5700147 C2.83270841,13.2460375 3.62012621,13.7768935 4.4970029,14.1477684 C5.40520245,14.5318866 6.36957908,14.7266596 7.36334002,14.7266596 C8.35710095,14.7266596 9.32147758,14.5318866 10.2296771,14.1477684 C10.8985782,13.8648628 11.5151793,13.4886008 12.0702163,13.0261041 C12.0715018,13.02741 12.0727058,13.0287976 12.0740117,13.0300832 L14.8526448,15.8087367 C14.9801809,15.9362728 15.1472633,16 15.3143866,16 C15.481469,16 15.6486331,15.936232 15.7761079,15.8087571 C16.0310984,15.5537666 16.0310984,15.140305 15.7761079,14.8853145 Z M7.36334002,13.4678073 C5.73277626,13.4678073 4.19981329,12.8328206 3.04682614,11.6798539 C1.89383899,10.5268667 1.25887268,8.99390378 1.25887268,7.36334002 C1.25887268,5.73277626 1.89383899,4.19981329 3.04682614,3.04682614 C4.19979288,1.89383899 5.73275585,1.25887268 7.36334002,1.25887268 C8.99392418,1.25887268 10.5268667,1.89383899 11.6798539,3.04682614 C12.8328206,4.19979288 13.4678073,5.73275585 13.4678073,7.36334002 C13.4678073,8.99392418 12.8328206,10.5268667 11.6798539,11.6798539 C10.5268667,12.8328206 8.99390378,13.4678073 7.36334002,13.4678073 Z" id="形状"></path>
                </g>
            </g>
        </g>
    </g>
</svg>