<?xml version="1.0" encoding="UTF-8"?>
<svg width="15px" height="15px" viewBox="0 0 15 15" version="1.1" xmlns="http://www.w3.org/2000/svg" xmlns:xlink="http://www.w3.org/1999/xlink">
    <title>编组</title>
    <g id="系统管理" stroke="none" stroke-width="1" fill="none" fill-rule="evenodd">
        <g id="成员管理" transform="translate(-547.000000, -141.000000)" fill="#8291A9" fill-rule="nonzero">
            <g id="编组" transform="translate(547.000000, 141.000000)">
                <path d="M7.31353586,10.7142857 C5.54567871,10.7142857 4.09925014,9.26785714 4.09925014,7.5 C4.09925014,5.73214286 5.54567871,4.28571429 7.31353586,4.28571429 C9.081393,4.28571429 10.5278216,5.73214286 10.5278216,7.5 C10.5278216,9.26785714 9.081393,10.7142857 7.31353586,10.7142857 Z M7.31353586,5.35714286 C6.13496443,5.35714286 5.17067871,6.32142857 5.17067871,7.5 C5.17067871,8.67857143 6.13496443,9.64285714 7.31353586,9.64285714 C8.49210728,9.64285714 9.456393,8.67857143 9.456393,7.5 C9.456393,6.32142857 8.49210728,5.35714286 7.31353586,5.35714286 Z M8.57246443,15 L6.081393,15 C5.30460728,15 4.66175014,14.3571429 4.66175014,13.5803571 C4.66175014,13.4464286 4.581393,13.3125 4.44746443,13.2589286 C4.23317871,13.1517857 4.018893,13.0178571 3.80460728,12.8839286 C3.67067871,12.8035714 3.53675014,12.8035714 3.42960728,12.8571429 C2.73317871,13.2589286 1.87603586,13.0178571 1.47425014,12.3214286 L0.188535856,10.1785714 C0.00103585627,9.85714286 -0.0525355723,9.45535714 0.0546072848,9.08035714 C0.161750142,8.70535714 0.402821571,8.41071429 0.724250142,8.22321429 C0.831392999,8.14285714 0.911750142,8.00892857 0.911750142,7.875 L0.911750142,7.125 C0.911750142,6.99107143 0.858178713,6.85714286 0.724250142,6.77678571 C0.0278215706,6.375 -0.186464144,5.51785714 0.188535856,4.82142857 L1.44746443,2.65178571 C1.84925014,1.95535714 2.706393,1.74107143 3.40282157,2.11607143 C3.50996443,2.16964286 3.67067871,2.16964286 3.77782157,2.08928571 C3.99210728,1.95535714 4.206393,1.82142857 4.42067871,1.71428571 C4.55460728,1.66071429 4.63496443,1.52678571 4.63496443,1.39285714 C4.63496443,0.642857143 5.27782157,0 6.05460728,0 L8.54567871,0 C9.34925014,0 9.99210728,0.642857143 9.99210728,1.41964286 C9.99210728,1.55357143 10.0724644,1.6875 10.206393,1.74107143 C10.4206787,1.84821429 10.6349644,1.98214286 10.8492501,2.11607143 C10.9831787,2.19642857 11.1171073,2.19642857 11.2510359,2.14285714 C11.5724644,1.95535714 11.9742501,1.90178571 12.3224644,2.00892857 C12.6974644,2.11607143 12.9921073,2.35714286 13.1796073,2.67857143 L14.4385359,4.84821429 C14.8403216,5.54464286 14.5992501,6.40178571 13.9028216,6.80357143 C13.7956787,6.88392857 13.7153216,7.01785714 13.7153216,7.15178571 L13.7153216,7.90178571 C13.7153216,8.03571429 13.768893,8.16964286 13.9028216,8.25 C14.2242501,8.4375 14.4653216,8.75892857 14.5724644,9.10714286 C14.6796073,9.45535714 14.6260359,9.85714286 14.4385359,10.2053571 L13.1796073,12.3214286 C12.7778216,12.9910714 11.9206787,13.2321429 11.2242501,12.8571429 C11.1171073,12.7767857 10.956393,12.8035714 10.8224644,12.8839286 C10.6081787,13.0178571 10.393893,13.1517857 10.1796073,13.2589286 C10.0456787,13.3125 9.96532157,13.4464286 9.96532157,13.5803571 C9.99210728,14.3571429 9.34925014,15 8.57246443,15 Z M3.56353586,11.7321429 C3.831393,11.7321429 4.12603586,11.8125 4.36710728,11.9732143 C4.52782157,12.0803571 4.71532157,12.1875 4.90282157,12.2678571 C5.38496443,12.5089286 5.706393,13.0178571 5.706393,13.5535714 C5.706393,13.7410714 5.86710728,13.9017857 6.05460728,13.9017857 L8.54567871,13.9017857 C8.73317871,13.9017857 8.893893,13.7410714 8.893893,13.5535714 C8.893893,13.0178571 9.18853586,12.5089286 9.69746443,12.2678571 C9.88496443,12.1875 10.0456787,12.0803571 10.2331787,11.9732143 C10.6885359,11.6785714 11.2778216,11.6517857 11.7331787,11.9196429 C11.893893,12.0267857 12.1349644,11.9464286 12.2153216,11.7857143 L13.4742501,9.61607143 C13.5278216,9.53571429 13.5278216,9.42857143 13.5010359,9.34821429 C13.4742501,9.26785714 13.4206787,9.1875 13.3403216,9.13392857 C12.8581787,8.86607143 12.5903216,8.35714286 12.6171073,7.79464286 L12.6171073,7.20535714 C12.5903216,6.64285714 12.8581787,6.13392857 13.3403216,5.86607143 C13.5010359,5.75892857 13.581393,5.54464286 13.4742501,5.38392857 L12.268893,3.21428571 C12.2153216,3.13392857 12.1349644,3.08035714 12.0546073,3.05357143 C11.9742501,3.02678571 11.8671073,3.05357143 11.7867501,3.08035714 C11.3046073,3.34821429 10.7421073,3.32142857 10.2867501,3.02678571 C10.1260359,2.91964286 9.93853586,2.8125 9.75103586,2.73214286 C9.268893,2.49107143 8.94746443,1.98214286 8.94746443,1.44642857 C8.92067871,1.23214286 8.75996443,1.07142857 8.57246443,1.07142857 L6.081393,1.07142857 C5.86710728,1.07142857 5.706393,1.23214286 5.706393,1.41964286 C5.706393,1.95535714 5.41175014,2.46428571 4.90282157,2.70535714 C4.71532157,2.78571429 4.55460728,2.89285714 4.36710728,3 C3.91175014,3.29464286 3.32246443,3.32142857 2.84032157,3.05357143 C2.67960728,2.94642857 2.43853586,3.02678571 2.35817871,3.1875 L1.12603586,5.35714286 C1.018893,5.51785714 1.09925014,5.75892857 1.25996443,5.83928571 C1.74210728,6.10714286 2.00996443,6.61607143 1.98317871,7.17857143 L1.98317871,7.76785714 C2.00996443,8.33035714 1.74210728,8.83928571 1.25996443,9.10714286 C1.17960728,9.16071429 1.12603586,9.24107143 1.09925014,9.32142857 C1.07246443,9.40178571 1.09925014,9.50892857 1.12603586,9.58928571 L2.38496443,11.7589286 C2.49210728,11.9196429 2.706393,12 2.86710728,11.8928571 C3.081393,11.7857143 3.32246443,11.7321429 3.56353586,11.7321429 Z" id="形状"></path>
            </g>
        </g>
    </g>
</svg>