<?xml version="1.0" encoding="UTF-8"?>
<svg width="17px" height="16px" viewBox="0 0 17 16" version="1.1" xmlns="http://www.w3.org/2000/svg" xmlns:xlink="http://www.w3.org/1999/xlink">
    <title>编组</title>
    <g id="接待回访" stroke="none" stroke-width="1" fill="none" fill-rule="evenodd">
        <g id="选择完题目" transform="translate(-1003.000000, -1001.000000)" fill="#FDAD02" fill-rule="nonzero">
            <g id="编组" transform="translate(1003.000000, 1001.000000)">
                <path d="M8.41036602,0 L10.6118087,4.46059311 C10.8618755,4.96500134 11.3427732,5.31552231 11.8984772,5.39674058 L16.820732,6.11274379 L13.2599519,9.58375635 C12.8559979,9.97702378 12.6721881,10.5434144 12.7683676,11.096981 L13.6083356,16 L9.20545017,13.6852792 C8.96179535,13.5570398 8.68608068,13.4886455 8.41036602,13.4886455 C8.13465135,13.4886455 7.85893668,13.5570398 7.61528186,13.6852792 L3.21239647,16 L4.05236441,11.096981 C4.14854395,10.5412771 3.96259685,9.97702378 3.56078012,9.58375635 L0,6.11060647 L4.92225488,5.39460326 C5.48009618,5.31338499 5.96099386,4.96500134 6.20892332,4.45845578 L8.41036602,0" id="形状"></path>
            </g>
        </g>
    </g>
</svg>