<?xml version="1.0" encoding="UTF-8"?>
<svg width="18px" height="16px" viewBox="0 0 18 16" version="1.1" xmlns="http://www.w3.org/2000/svg" xmlns:xlink="http://www.w3.org/1999/xlink">
    <title>编组</title>
    <g id="系统管理" stroke="none" stroke-width="1" fill="none" fill-rule="evenodd">
        <g id="字典管理" transform="translate(-975.000000, -317.000000)" fill="#8291A9" fill-rule="nonzero">
            <g id="编组" transform="translate(975.000000, 317.000000)">
                <path d="M16.3125,4.5 L14.625,4.5 L14.625,2.25 C14.625,1.0125 13.6125,0 12.375,0 L5.625,0 C4.3875,0 3.375,1.0125 3.375,2.25 L3.375,4.5 L1.6875,4.5 C0.7875,4.5 0,5.2875 0,6.1875 L0,10.6875 C0,11.5875 0.7875,12.375 1.6875,12.375 L4.5,12.375 L4.5,14.625 C4.5,15.3 4.95,15.75 5.625,15.75 L12.375,15.75 C13.05,15.75 13.5,15.3 13.5,14.625 L13.5,12.375 L16.3125,12.375 C17.2125,12.375 18,11.5875 18,10.6875 L18,6.1875 C18,5.2875 17.2125,4.5 16.3125,4.5 Z M4.5,2.25 C4.5,1.575 4.95,1.125 5.625,1.125 L12.375,1.125 C13.05,1.125 13.5,1.575 13.5,2.25 L13.5,4.5 L4.5,4.5 L4.5,2.25 Z M12.375,14.625 L5.625,14.625 L5.625,9 L12.375,9 L12.375,14.625 Z M16.875,10.6875 C16.875,11.025 16.65,11.25 16.3125,11.25 L13.5,11.25 L13.5,9 C13.5,8.325 13.05,7.875 12.375,7.875 L5.625,7.875 C4.95,7.875 4.5,8.325 4.5,9 L4.5,11.25 L1.6875,11.25 C1.35,11.25 1.125,11.025 1.125,10.6875 L1.125,6.1875 C1.125,5.85 1.35,5.625 1.6875,5.625 L16.3125,5.625 C16.65,5.625 16.875,5.85 16.875,6.1875 L16.875,10.6875 Z" id="形状"></path>
            </g>
        </g>
    </g>
</svg>