<?xml version="1.0" encoding="UTF-8"?>
<svg width="16px" height="16px" viewBox="0 0 16 16" version="1.1" xmlns="http://www.w3.org/2000/svg" xmlns:xlink="http://www.w3.org/1999/xlink">
    <title>编组</title>
    <g id="系统管理" stroke="none" stroke-width="1" fill="none" fill-rule="evenodd">
        <g id="字典管理" transform="translate(-1076.000000, -317.000000)" fill="#8291A9" fill-rule="nonzero">
            <g id="编组" transform="translate(1076.000000, 317.000000)">
                <path d="M15.3847426,3.07628696 L9.84411827,3.07628696 C9.50341123,3.07628696 9.22886087,2.80173662 9.22886087,2.46102956 C9.22886087,2.12032252 9.50341121,1.84577216 9.84411827,1.84577216 L15.3814348,1.84577216 C15.7221418,1.84577216 15.9967218,2.1203225 15.9967218,2.46102956 C16,2.80173662 15.7254497,3.07628696 15.3847426,3.07628696 Z" id="路径"></path>
                <path d="M15.3847426,6.15257391 L9.84411827,6.15257391 C9.50341123,6.15257391 9.22886087,5.87802358 9.22886087,5.53731652 C9.22886087,5.19660945 9.50341121,4.92205912 9.84411827,4.92205912 L15.3814348,4.92205912 C15.7221418,4.92205912 15.9966922,5.19660945 15.9966922,5.53731652 C15.9966922,5.87802358 15.7254497,6.15257391 15.3847426,6.15257391 Z" id="路径"></path>
                <path d="M15.3847426,11.0779409 L9.84411827,11.0779409 C9.50341123,11.0779409 9.22886087,10.8033905 9.22886087,10.4626835 C9.22886087,10.1219764 9.50341121,9.84742609 9.84411827,9.84742609 L15.3814348,9.84742609 C15.7221418,9.84742609 15.9966922,10.1219764 15.9966922,10.4626835 C15.9966922,10.8033905 15.7254497,11.0779409 15.3847426,11.0779409 Z" id="路径"></path>
                <path d="M15.3847426,14.1542278 L9.84411827,14.1542278 C9.50341123,14.1542278 9.22886087,13.8796775 9.22886087,13.5389704 C9.22886087,13.1982634 9.50341121,12.923713 9.84411827,12.923713 L15.3814348,12.923713 C15.7221418,12.923713 15.9966922,13.1982634 15.9966922,13.5389704 C15.9966922,13.8796775 15.7254497,14.1542278 15.3847426,14.1542278 Z" id="路径"></path>
                <path d="M5.53731653,7.38308869 L1.84577218,7.38308869 C0.826958865,7.38308869 0,6.55612983 0,5.53731652 L0,1.84577218 C0,0.826958865 0.826958885,-6.99584189e-16 1.8457722,-6.99584189e-16 L5.53731653,-6.99584189e-16 C6.55612985,-6.99584189e-16 7.38308871,0.826958865 7.38308871,1.84577218 L7.38308871,5.53731652 C7.38308871,6.55612985 6.55612985,7.38308869 5.53731653,7.38308869 Z M1.84577218,1.23051478 C1.50837297,1.23051478 1.23051478,1.50837297 1.23051478,1.8457722 L1.23051478,5.53731653 C1.23051478,5.87471574 1.50837295,6.15257393 1.84577218,6.15257393 L5.53731652,6.15257393 C5.87471572,6.15257393 6.15257391,5.87471576 6.15257391,5.53731653 L6.15257391,1.84577218 C6.15257391,1.50837297 5.87471574,1.23051478 5.53731652,1.23051478 L1.84577218,1.23051478 L1.84577218,1.23051478 Z" id="形状"></path>
                <path d="M5.53731653,16 L1.84577218,16 C0.826958865,16 0,15.1730411 0,14.1542278 L0,10.4593757 C0,9.44056234 0.826958885,8.61360347 1.8457722,8.61360347 L5.53731653,8.61360347 C6.55612985,8.61360347 7.38308871,9.44056234 7.38308871,10.4593757 L7.38308871,14.15092 C7.38308871,15.1697333 6.55612985,16 5.53731653,16 Z M1.84577218,9.84411825 C1.50837297,9.84411825 1.23051478,10.1186686 1.23051478,10.4593757 L1.23051478,14.15092 C1.23051478,14.491627 1.50837295,14.7661774 1.84577218,14.7661774 L5.53731652,14.7661774 C5.87471572,14.7661774 6.15257391,14.4916271 6.15257391,14.15092 L6.15257391,10.4593757 C6.15257391,10.1186686 5.87471574,9.84411825 5.53731652,9.84411825 L1.84577218,9.84411825 L1.84577218,9.84411825 Z" id="形状"></path>
            </g>
        </g>
    </g>
</svg>